<?xml version="1.0" standalone="no"?>
<!DOCTYPE svg PUBLIC "-//W3C//DTD SVG 20010904//EN"
 "http://www.w3.org/TR/2001/REC-SVG-20010904/DTD/svg10.dtd">
<svg version="1.0" xmlns="http://www.w3.org/2000/svg"
 width="400.000000pt" height="400.000000pt" viewBox="0 0 400.000000 400.000000"
 preserveAspectRatio="xMidYMid meet">
<metadata>
Created by potrace 1.14, written by Peter Selinger 2001-2017
</metadata>
<g transform="translate(0.000000,400.000000) scale(0.100000,-0.100000)"
fill="#000000" stroke="none">
<path d="M1829 3989 c-195 -28 -404 -113 -569 -232 -81 -58 -239 -221 -292
-302 -102 -155 -170 -324 -202 -505 -13 -73 -14 -324 -2 -398 67 -397 321
-741 682 -920 83 -42 205 -86 283 -103 l46 -10 -1 -267 c-1 -147 -2 -270 -3
-274 0 -5 -124 -8 -274 -8 l-272 0 0 -222 0 -223 275 -5 275 -5 0 -258 0 -257
225 2 225 3 0 255 0 255 275 5 275 5 0 223 0 222 -272 0 c-150 0 -274 3 -274
8 -1 4 -2 126 -3 271 -1 255 -1 264 19 272 11 4 63 19 115 34 343 95 652 375
796 722 82 198 113 459 78 668 -85 519 -478 928 -993 1032 -85 17 -326 24
-412 12z m376 -467 c300 -83 521 -321 580 -623 16 -85 14 -260 -4 -329 -71
-271 -263 -485 -510 -572 -142 -49 -327 -59 -466 -24 -286 73 -511 303 -587
601 -13 54 -17 267 -5 325 67 323 312 568 634 635 91 19 266 13 358 -13z"/>
</g>
</svg>
